<svg width="435" height="134" viewBox="0 0 435 134" fill="none" xmlns="http://www.w3.org/2000/svg">
<path d="M34.7612 29.3612C37.9544 29.3612 40.9976 29.8572 43.8908 30.8422C46.7911 31.8272 49.3057 33.2383 51.4488 35.0895C53.5919 36.9407 55.2064 39.2111 56.2994 41.9286C56.9709 43.8217 57.3066 45.8755 57.3066 48.09C57.3066 49.1588 57.2209 50.2696 57.0566 51.4152L53.7777 74.2028C52.8561 78.2266 51.4274 81.5938 49.4986 84.3042C47.5627 87.0147 45.2767 89.2082 42.6335 90.8918C39.9832 92.5754 37.09 93.7839 33.9468 94.5244C30.7964 95.2649 27.5389 95.6351 24.1814 95.6351C19.9023 95.6351 15.6804 95.1601 11.5228 94.217C7.36514 93.2739 3.52898 92.1073 0 90.7032L11.9657 7.06264H25.8244L22.174 31.9459C26.1888 30.2274 30.3892 29.3612 34.7612 29.3612ZM23.417 84.2972H24.4243C26.103 84.2972 27.8032 84.1086 29.5249 83.7453C31.2465 83.3751 32.8181 82.7813 34.2468 81.957C35.6756 81.1327 36.8971 80.0918 37.9044 78.8134C38.9117 77.542 39.5832 76.0051 39.9189 74.1958L43.3193 50.7935C43.3979 49.068 43.1121 47.594 42.4406 46.3576C41.7691 45.1281 40.8405 44.1221 39.6689 43.3397C38.4902 42.5573 37.1257 41.9635 35.5756 41.5513C34.0182 41.1392 32.4038 40.9366 30.725 40.9366C28.9605 40.9366 27.1746 41.1601 25.3672 41.6142C23.567 42.0683 21.9454 42.704 20.5238 43.5213L14.9803 82.5717C16.159 83.1446 17.5806 83.5986 19.2594 83.927C20.6095 84.1785 21.9954 84.2972 23.417 84.2972Z" fill="#3F2873"/>
<path d="M92.375 29.3612C95.4825 29.3612 98.5043 29.8362 101.447 30.7793C104.391 31.7223 106.927 33.1195 109.07 34.9638C111.213 36.815 112.827 39.0923 113.92 41.8028C114.678 43.696 115.056 45.7917 115.056 48.083C115.056 49.1518 114.97 50.2556 114.806 51.4083L111.656 73.5811C111.156 77.2765 109.956 80.497 108.07 83.2564C106.177 86.0088 103.891 88.307 101.205 90.1583C98.5186 92.0025 95.5754 93.3787 92.3821 94.2799C89.1889 95.181 86.0385 95.6351 82.9382 95.6351C79.745 95.6351 76.6589 95.181 73.68 94.2799C70.7011 93.3787 68.1365 92.0025 65.9934 90.1583C63.8503 88.307 62.2358 86.0297 61.1428 83.3192C60.3856 81.4261 60.007 79.2954 60.007 76.9133C60.007 75.8445 60.0855 74.7407 60.2641 73.588L63.4073 51.4152C63.9146 47.7198 65.1075 44.5203 67.0006 41.8098C68.8866 39.0993 71.1797 36.822 73.8657 34.9707C76.5517 33.1265 79.5092 31.7293 82.7453 30.7863C85.9742 29.8292 89.1889 29.3612 92.375 29.3612ZM90.4891 42.5433C89.0603 42.5433 87.6102 42.7249 86.1457 43.0952C84.6741 43.4654 83.3097 44.0173 82.0524 44.7578C80.7879 45.4983 79.7378 46.4204 78.902 47.5312C78.0662 48.6419 77.5161 49.9273 77.2661 51.4083L74.2443 72.9663C74.1586 73.4553 74.1157 73.9094 74.1157 74.3215C74.1157 75.3065 74.3229 76.1658 74.7444 76.9063C75.2444 78.1358 76.0231 79.1627 77.0732 79.987C78.1233 80.8113 79.3449 81.4191 80.7308 81.8312C82.1095 82.2434 83.5168 82.446 84.9456 82.446C86.2886 82.446 87.6745 82.2434 89.1032 81.8312C90.5319 81.4191 91.8749 80.8043 93.1394 79.987C94.3967 79.1627 95.4468 78.1568 96.2826 76.9692C97.1256 75.7746 97.6685 74.4403 97.9185 72.9663L100.94 51.4083C101.026 50.9961 101.069 50.5839 101.069 50.1787C101.069 49.1938 100.862 48.3275 100.44 47.594C99.8544 46.4414 99.0543 45.4983 98.0471 44.7578C97.0398 44.0173 95.8611 43.4654 94.5181 43.0952C93.1751 42.7249 91.8321 42.5433 90.4891 42.5433Z" fill="#3F2873"/>
<path d="M183.078 126.91H167.077L138.23 73.092L121.221 94.3986H105.098L131.808 62.4947L114.17 30.5907H130.294L141.252 52.023L158.004 30.5907H173.877L148.053 62.4947L183.078 126.91Z" fill="#3F2873"/>
<path d="M236.22 72.9524H229.012L225.691 95.9984H210.16L213.489 72.9524H173.284L165.934 61.1534L224.726 0H239.428L230.97 58.5757H238.178L236.22 72.9524ZM224.576 16.8147H222.497C220.647 19.2528 186.443 58.5757 186.443 58.5757H215.839C215.839 58.5757 221.569 27.4401 222.219 25.0859C222.776 23.0111 223.276 21.111 223.747 19.3925C224.205 17.674 224.483 16.8147 224.576 16.8147Z" fill="#00C0E8"/>
<path d="M275.268 26.2525C278.618 26.2525 281.74 26.6228 284.647 27.3633C287.555 28.1038 290.062 29.2913 292.177 30.926C294.284 32.5607 295.82 34.7472 296.777 37.4716C297.492 39.1901 297.856 41.1322 297.856 43.3187C297.856 44.5692 297.735 45.8895 297.499 47.2936L294.391 68.7958C293.913 72.2258 292.777 75.2227 290.984 77.7935C289.191 80.3643 286.998 82.4879 284.412 84.1645C281.818 85.8411 278.99 87.0845 275.925 87.9019C272.853 88.7192 269.81 89.1314 266.781 89.1314C262.795 89.1314 259.209 88.4328 256.023 87.0287L253.929 104.821H242.271L251.001 31.0517C254.587 29.5777 258.509 28.4042 262.773 27.5449C267.038 26.6787 271.203 26.2525 275.268 26.2525ZM265.945 77.7865C266.259 77.7865 266.624 77.7865 267.024 77.7865C270.289 77.7865 273.275 77.1019 275.989 75.7397C278.697 74.3775 280.447 72.0582 281.247 68.7888L284.476 47.0491C284.554 46.5043 284.597 45.9593 284.597 45.4145C284.597 44.3247 284.433 43.3537 284.119 42.4944C283.561 41.2509 282.726 40.238 281.611 39.4556C280.497 38.6802 279.161 38.1353 277.611 37.8209C276.053 37.5136 274.446 37.3529 272.767 37.3529C269.338 37.3529 266.074 38.0165 262.966 39.3368L257.587 76.3824C258.944 76.8504 260.459 77.1997 262.13 77.4372C263.316 77.6677 264.588 77.7865 265.945 77.7865Z" fill="#3F2873"/>
<path d="M322.073 89.0056C319.044 89.0056 316.115 88.5586 313.294 87.6644C310.465 86.7702 308.014 85.4289 305.943 83.6336C303.871 81.8382 302.278 79.6168 301.163 76.9692C300.449 75.097 300.085 73.0711 300.085 70.8916C300.085 69.8786 300.163 68.8238 300.328 67.734L303.192 47.6359C303.671 44.0522 304.807 40.9156 306.6 38.2261C308.393 35.5366 310.565 33.3012 313.115 31.5058C315.665 29.7105 318.451 28.3692 321.48 27.475C324.509 26.5808 327.574 26.1338 330.681 26.1338C333.789 26.1338 336.718 26.5878 339.468 27.475C342.218 28.3692 344.604 29.6965 346.64 31.4499C348.669 33.2033 350.162 35.4039 351.119 38.0515C351.755 39.8468 352.077 41.7889 352.077 43.8986C352.077 44.9883 351.998 46.12 351.841 47.2866C351.441 50.1718 350.505 52.6797 349.033 54.8243C347.562 56.9689 345.726 58.7433 343.54 60.1405C341.347 61.5446 338.818 62.5785 335.953 63.2351C333.089 63.8988 330.06 64.2271 326.874 64.2271C322.33 64.2271 318.03 63.4517 313.965 61.8869L313.251 67.734C313.172 68.2789 313.129 68.7888 313.129 69.2569C313.129 70.193 313.286 71.0103 313.608 71.7089C314.008 72.8755 314.687 73.8745 315.637 74.6918C316.594 75.5091 317.73 76.1309 319.044 76.557C320.359 76.9831 321.73 77.1997 323.166 77.1997C323.323 77.1997 323.48 77.1997 323.645 77.1997C325.795 77.1997 328.102 76.7316 330.574 75.7955C333.124 74.7826 335.232 73.2248 336.903 71.1221L345.269 77.1997C342.083 81.0977 338.439 84.0318 334.332 86.0227C330.217 88.0136 326.138 89.0056 322.073 89.0056ZM327.695 54.3004C331.203 54.3004 333.91 53.5179 335.818 51.9601C337.889 50.2486 338.925 48.1459 338.925 45.652C338.925 43.7798 338.168 42.1102 336.653 40.6292C334.982 39.0714 332.431 38.289 329.002 38.289C327.488 38.289 326.016 38.5056 324.581 38.9317C323.145 39.3578 321.83 40.0005 320.637 40.8598C319.444 41.719 318.444 42.7529 317.651 43.9545C316.851 45.163 316.337 46.5462 316.094 48.104L315.379 52.3094C316.737 52.7006 318.487 53.1268 320.637 53.5948C322.795 54.0628 325.145 54.3004 327.695 54.3004Z" fill="#3F2873"/>
<path d="M374.579 89.1244H372.308C369.357 89.1244 366.671 88.6983 364.242 87.839C361.813 86.9798 359.799 85.6734 358.206 83.92C356.613 82.1666 355.456 79.9311 354.741 77.1997C354.341 75.7187 354.141 74.0421 354.141 72.1769C354.141 70.7728 354.263 69.2499 354.498 67.6152L362.628 12.3369H374.579L373.386 27.4122H385.216L383.659 39.2181H371.829L367.528 67.4964C367.364 68.4325 367.293 69.3267 367.293 70.186C367.293 71.3526 367.45 72.3655 367.771 73.2248C368.407 74.5521 369.307 75.5441 370.457 76.2077C371.615 76.8714 373.008 77.2765 374.636 77.4372C376.272 77.5909 378.001 77.6678 379.837 77.6678L378.28 88.7681C377.165 89.0056 375.936 89.1244 374.579 89.1244Z" fill="#3F2873"/>
<path d="M409.598 77.0879C411.905 77.0879 413.977 76.5221 415.813 75.3974C417.649 74.2657 418.763 72.5751 419.163 70.3117C419.32 69.2219 419.142 68.3068 418.627 67.5663C418.106 66.8258 417.413 66.2041 416.534 65.6941C415.655 65.1912 414.684 64.779 413.605 64.4716C412.527 64.1643 411.469 63.8848 410.441 63.6543C408.29 63.2631 405.997 62.6623 403.568 61.845C401.139 61.0277 398.911 59.875 396.875 58.401C394.846 56.92 393.231 55.0478 392.038 52.7914C391.238 51.1568 390.845 49.2496 390.845 47.0631C390.845 46.127 390.924 45.156 391.081 44.1361C391.56 40.7899 392.553 37.9607 394.067 35.6624C395.582 33.364 397.432 31.5128 399.625 30.1087C401.818 28.7045 404.204 27.6986 406.797 27.0698C409.383 26.4481 411.998 26.1338 414.627 26.1338C416.298 26.1338 418.034 26.2944 419.827 26.6018C421.62 26.9092 423.413 27.3982 425.207 28.0618C427 28.7255 428.714 29.5638 430.343 30.5767C431.972 31.5896 433.472 32.8331 434.822 34.3141L425.742 42.7319C424.464 41.4047 422.635 40.2939 420.242 39.3997C417.849 38.5055 415.341 38.0165 412.712 37.9397C412.555 37.9397 412.391 37.9397 412.234 37.9397C410.398 37.9397 408.769 38.3309 407.333 39.1063C405.819 39.9656 404.783 41.4047 404.226 43.4305C403.904 44.7578 404.026 45.9035 404.583 46.8745C405.14 47.8525 405.94 48.6698 406.969 49.3265C408.005 49.9902 409.183 50.5141 410.498 50.9053C411.812 51.2965 413.105 51.6039 414.384 51.8414C416.777 52.2326 419.142 52.8194 421.492 53.5948C423.842 54.3772 425.871 55.488 427.585 56.927C429.3 58.3661 430.593 60.1824 431.472 62.3619C432.186 63.9197 432.55 65.6732 432.55 67.6222C432.55 68.5583 432.472 69.4874 432.315 70.4305C431.836 73.623 430.821 76.3754 429.264 78.6667C427.707 80.965 425.799 82.8931 423.528 84.4509C421.256 86.0087 418.749 87.1614 415.998 87.8949C413.248 88.6354 410.483 89.0056 407.69 89.0056C405.297 89.0056 402.925 88.7122 400.582 88.1254C398.232 87.5456 396.039 86.6444 394.01 85.4429C391.981 84.2343 390.203 82.7324 388.695 80.944C387.181 79.1487 386.023 77.046 385.23 74.6359L395.989 68.4465C397.26 71.3317 399.218 73.4902 401.847 74.9293C404.454 76.3684 407.047 77.0879 409.598 77.0879Z" fill="#3F2873"/>
</svg>
